<?xml version="1.0" standalone="no"?>
<!DOCTYPE svg PUBLIC "-//W3C//DTD SVG 20010904//EN"
 "http://www.w3.org/TR/2001/REC-SVG-20010904/DTD/svg10.dtd">
<svg version="1.0" xmlns="http://www.w3.org/2000/svg"
 width="512.000000pt" height="512.000000pt" viewBox="0 0 512.000000 512.000000"
 preserveAspectRatio="xMidYMid meet">
<metadata>
Created by potrace 1.11, written by Peter Selinger 2001-2013
</metadata>
<g transform="translate(0.000000,512.000000) scale(0.100000,-0.100000)"
fill="#000000" stroke="none">
<path d="M1435 4554 c-93 -64 -205 -139 -247 -167 -60 -40 -74 -55 -65 -64 10
-9 197 -136 418 -284 l55 -37 935 0 934 0 160 106 c88 59 162 109 165 112 3 3
120 82 260 175 140 94 257 172 260 175 3 3 35 25 73 49 37 24 67 45 67 47 0 2
-640 4 -1422 4 l-1423 -1 -170 -115z"/>
<path d="M895 4170 c-49 -33 -97 -64 -105 -70 -8 -6 -74 -50 -146 -98 l-131
-87 1 -467 c1 -297 5 -471 11 -477 20 -20 387 -271 396 -271 5 0 9 -4 9 -8 0
-5 15 -17 33 -27 l34 -18 124 84 c68 46 129 86 134 88 6 2 12 7 15 10 3 4 51
38 108 75 56 38 102 76 103 85 1 9 2 216 3 461 1 384 -1 446 -14 457 -49 39
-111 83 -119 83 -4 0 -16 9 -26 20 -10 11 -24 20 -31 20 -7 0 -14 3 -16 8 -1
4 -52 40 -113 81 -60 41 -121 83 -134 93 -13 10 -29 18 -35 18 -6 0 -51 -27
-101 -60z"/>
<path d="M1702 2923 c-8 -3 -99 -63 -204 -134 -105 -71 -194 -129 -199 -129
-5 0 -9 -4 -9 -8 0 -5 -18 -19 -41 -31 -40 -23 -40 -24 -23 -41 11 -9 78 -57
149 -105 259 -175 280 -190 285 -195 22 -23 110 -26 917 -25 l862 1 73 50 c40
27 129 88 198 134 69 47 127 88 128 93 2 4 9 7 15 7 7 0 28 13 46 30 l35 29
-25 9 c-13 6 -44 25 -69 43 -25 19 -53 38 -63 44 -9 5 -83 55 -164 110 -81 55
-158 106 -171 113 -19 9 -213 12 -876 11 -468 0 -857 -3 -864 -6z"/>
<path d="M4107 2482 c-3 -4 -72 -52 -154 -107 -81 -55 -150 -102 -153 -105 -3
-3 -37 -26 -76 -52 -39 -26 -75 -53 -81 -60 -6 -8 -10 -181 -9 -488 l1 -475
135 -92 c74 -50 173 -118 219 -150 47 -32 96 -66 110 -75 26 -16 27 -16 159
78 73 52 137 94 142 94 5 0 13 6 17 13 4 6 47 38 95 71 48 32 88 63 90 70 3 9
2 907 -1 951 -1 8 -7 15 -14 15 -8 0 -22 9 -32 20 -10 11 -22 20 -26 20 -5 0
-17 7 -26 15 -19 15 -55 41 -262 183 -126 86 -127 87 -134 74z"/>
<path d="M1674 1121 c-10 -2 -57 -29 -104 -60 -191 -128 -366 -246 -375 -253
-5 -4 -57 -39 -115 -77 -58 -39 -110 -74 -115 -78 -6 -4 -75 -51 -153 -103
l-142 -95 1427 -3 1427 -2 65 42 c36 24 71 46 76 51 6 4 90 60 187 123 177
115 178 116 155 133 -12 10 -125 87 -252 171 l-230 154 -916 0 c-503 1 -924
-1 -935 -3z"/>
</g>
</svg>
